<svg xmlns="http://www.w3.org/2000/svg" width="100%" viewBox="0 0 941 382" fill="none" class="footer-mobile-logo_svg"><path d="M940.689 83.6343V312.664C940.689 350.749 909.95 381.62 872.028 381.62H34.4602C15.8081 381.62 0.689453 366.436 0.689453 347.704V170.798C0.689453 153.889 12.8733 139.442 29.4979 136.669L843.838 1.14395C894.561 -7.29124 940.689 31.9954 940.689 83.6149" fill="#EAE4D8"></path><path d="M855.114 363.741H253.594V117.356L844.9 24.2971C884.869 18.0143 921.014 49.0403 921.014 89.6843V297.558C921.014 334.111 891.511 363.741 855.114 363.741Z" fill="black"><svg xmlns="http://www.w3.org/2000/svg" width="100%" viewBox="0 0 31 31" fill="none"><g clip-path="url(#clip0_10010_1223)"><path d="M27.6895 2.93927L13.9395 16.6893" stroke="currentColor" stroke-width="1.875" stroke-miterlimit="10"></path><path d="M27.6895 2.93927L18.9395 27.9393L13.9395 16.6893L2.68945 11.6893L27.6895 2.93927Z" stroke="currentColor" stroke-width="2.5" stroke-miterlimit="10"></path></g><defs><clipPath id="clip0_10010_1223"><rect width="30" height="30" fill="currentColor" transform="translate(0.189453 0.43927)"></rect></clipPath></defs></svg></path><path d="M323.066 121.835V214.7L306.229 216.232V124.337L271.802 129.417V348.81L306.229 348.48V256.585L323.066 255.46V348.325L359.791 347.976V116.406L323.066 121.835Z" fill="white"></path><path d="M429.128 106.148L419.339 194.223L418.875 201.766L417.948 201.863L417.485 194.416L407.85 109.289L368.132 115.164L398.543 264.69V347.607L438.763 347.239V262.363L471.8 99.826L429.128 106.148Z" fill="white"></path><path d="M723.739 113.671V62.556L613.1 78.9223V345.591L723.739 344.543V293.448L666.488 295.425V232.714L720.417 229.146V178.477L666.488 183.402V120.71L723.739 113.671Z" fill="white"></path><path d="M547.354 221.933L526.463 223.523V133.121L547.354 130.503V221.933ZM479.948 98.6237V346.851L526.115 346.405V265.951L547.528 264.807C575.526 263.314 597.46 240.083 597.46 211.927V142.564C597.46 110.258 568.884 85.4764 537.044 90.1885L479.948 98.6431V98.6237Z" fill="white"></path><path d="M826.711 294.262L799.1 295.154V98.934L826.711 95.4629V294.262ZM738.027 60.4424V344.408L841.058 343.438C869.982 343.167 893.287 319.548 893.287 290.5V98.7982C893.287 66.4924 864.711 41.7105 832.871 46.4225L738.008 60.4618L738.027 60.4424Z" fill="white"></path><path d="M98.1596 363.741H157.881V320.169L123.435 321.177V271.943L155.796 269.868V226.625L123.435 229.65V180.397L157.881 175.995V132.423L98.1596 141.808V363.741Z" fill="black"></path><path d="M167.033 130.968V174.831L190.822 171.787V363.741H219.553V168.122L245.079 164.864V118.694L167.033 130.968Z" fill="black"></path><path d="M65.0839 235.099V187.552L39.1138 190.868V324.9L65.0839 324.144V284.838L49.135 285.749V247.665L89.181 244.252V363.722H65.1032V351.253L60.9132 355.383C55.4875 360.735 48.1889 363.722 40.6006 363.722H36.4492C25.5206 363.722 16.6772 354.821 16.6772 343.865V177.275C16.6772 164.244 26.1384 153.133 38.9593 151.116L66.3582 146.811C78.3488 144.93 89.2003 154.238 89.2003 166.416V232.831L65.1224 235.08L65.0839 235.099Z" fill="black"></path></svg>