<svg xmlns="http://www.w3.org/2000/svg" width="100%" viewBox="0 0 374 142" fill="none" class="footer-logo_svg"><path d="M346.695 141.574H98.1443V39.7663L342.475 1.31406C358.99 -1.28201 373.926 11.5381 373.926 28.3324V114.227C373.926 129.331 361.735 141.574 346.695 141.574Z" fill="black"></path><path d="M126.851 41.6173V79.9895L119.894 80.6225V42.651L105.669 44.7503V135.404L119.894 135.268V97.2966L126.851 96.8319V135.204L142.026 135.06V39.3738L126.851 41.6173Z" fill="white"></path><path d="M170.676 35.1352L166.631 71.5282L166.44 74.6451L166.057 74.6851L165.866 71.6083L161.884 36.4332L145.473 38.861L158.039 100.646V134.908L174.658 134.755V99.6843L188.309 32.5231L170.676 35.1352Z" fill="white"></path><path d="M292.411 38.2441V17.123L246.695 23.8856V134.074L292.411 133.642V112.528L268.755 113.346V87.4331L291.039 85.9588V65.022L268.755 67.0572V41.1526L292.411 38.2441Z" fill="white"></path><path d="M219.528 82.9781L210.896 83.6352V46.2806L219.528 45.1989V82.9781ZM191.676 32.0263V134.595L210.752 134.411V101.167L219.6 100.694C231.169 100.077 240.232 90.4779 240.232 78.8436V50.1827C240.232 36.8338 228.424 26.5938 215.268 28.5408L191.676 32.0343V32.0263Z" fill="white"></path><path d="M334.96 112.865L323.551 113.234V32.1545L334.96 30.7202V112.865ZM298.315 16.2496V133.585L340.888 133.185C352.839 133.073 362.469 123.313 362.469 111.311V32.0984C362.469 18.7495 350.661 8.50946 337.505 10.4565L298.307 16.2576L298.315 16.2496Z" fill="white"></path><path d="M33.9179 141.574H58.5951V123.57L44.3616 123.987V103.643L57.7334 102.785V84.9174L44.3616 86.1674V65.8155L58.5951 63.9966V45.9924L33.9179 49.8705V141.574Z" fill="black"></path><path d="M62.3769 45.3915V63.5159L72.2063 62.2579V141.574H84.0782V60.7435L94.6256 59.3974V40.3195L62.3769 45.3915Z" fill="black"></path><path d="M20.2509 88.4189V68.7721L9.51992 70.1423V125.525L20.2509 125.213V108.971L13.6607 109.348V93.6111L30.2079 92.2009V141.566H20.2589V136.414L18.5275 138.121C16.2856 140.332 13.2698 141.566 10.1343 141.566H8.4189C3.90312 141.566 0.249023 137.888 0.249023 133.361V64.5255C0.249023 59.141 4.15842 54.5498 9.45608 53.7165L20.7774 51.9378C25.732 51.1605 30.2159 55.0066 30.2159 60.0384V87.4814L20.2668 88.4109L20.2509 88.4189Z" fill="black"></path></svg>